<?xml version="1.0" encoding="utf-8"?>
<!DOCTYPE svg PUBLIC "-//W3C//DTD SVG 20010904//EN" "http://www.w3.org/TR/2001/REC-SVG-20010904/DTD/svg10.dtd">
<svg xmlns="http://www.w3.org/2000/svg" xml:space="preserve" xmlns:xlink="http://www.w3.org/1999/xlink" width="305" height="124.539" viewBox="0 0 305 124.539">
<desc></desc>
<rect x="0" y="0" width="305" height="124.539" style="fill:#ffffff;" />
<line fill="none" style="stroke:#0c00b0; stroke-width:3;" x1="21.5" y1="0" x2="21.5" y2="98"/>
<line fill="none" style="stroke:#0c00b0; stroke-width:3;" x1="27.5" y1="0" x2="27.5" y2="98"/>
<line fill="none" style="stroke:#0c00b0; stroke-width:9;" x1="36.5" y1="0" x2="36.5" y2="90"/>
<line fill="none" style="stroke:#0c00b0; stroke-width:6;" x1="47" y1="0" x2="47" y2="90"/>
<line fill="none" style="stroke:#0c00b0; stroke-width:3;" x1="60.5" y1="0" x2="60.5" y2="90"/>
<line fill="none" style="stroke:#0c00b0; stroke-width:3;" x1="69.5" y1="0" x2="69.5" y2="90"/>
<line fill="none" style="stroke:#0c00b0; stroke-width:6;" x1="77" y1="0" x2="77" y2="90"/>
<line fill="none" style="stroke:#0c00b0; stroke-width:6;" x1="89" y1="0" x2="89" y2="90"/>
<line fill="none" style="stroke:#0c00b0; stroke-width:3;" x1="99.5" y1="0" x2="99.5" y2="90"/>
<line fill="none" style="stroke:#0c00b0; stroke-width:6;" x1="110" y1="0" x2="110" y2="90"/>
<line fill="none" style="stroke:#0c00b0; stroke-width:3;" x1="117.5" y1="0" x2="117.5" y2="90"/>
<line fill="none" style="stroke:#0c00b0; stroke-width:3;" x1="132.5" y1="0" x2="132.5" y2="90"/>
<line fill="none" style="stroke:#0c00b0; stroke-width:3;" x1="138.5" y1="0" x2="138.5" y2="90"/>
<line fill="none" style="stroke:#0c00b0; stroke-width:6;" x1="152" y1="0" x2="152" y2="90"/>
<line fill="none" style="stroke:#0c00b0; stroke-width:3;" x1="159.5" y1="0" x2="159.5" y2="98"/>
<line fill="none" style="stroke:#0c00b0; stroke-width:3;" x1="165.5" y1="0" x2="165.5" y2="98"/>
<line fill="none" style="stroke:#0c00b0; stroke-width:3;" x1="171.5" y1="0" x2="171.5" y2="90"/>
<line fill="none" style="stroke:#0c00b0; stroke-width:9;" x1="183.5" y1="0" x2="183.5" y2="90"/>
<line fill="none" style="stroke:#0c00b0; stroke-width:3;" x1="192.5" y1="0" x2="192.5" y2="90"/>
<line fill="none" style="stroke:#0c00b0; stroke-width:3;" x1="198.5" y1="0" x2="198.5" y2="90"/>
<line fill="none" style="stroke:#0c00b0; stroke-width:3;" x1="213.5" y1="0" x2="213.5" y2="90"/>
<line fill="none" style="stroke:#0c00b0; stroke-width:3;" x1="225.5" y1="0" x2="225.5" y2="90"/>
<line fill="none" style="stroke:#0c00b0; stroke-width:3;" x1="234.5" y1="0" x2="234.5" y2="90"/>
<line fill="none" style="stroke:#0c00b0; stroke-width:3;" x1="243.5" y1="0" x2="243.5" y2="90"/>
<line fill="none" style="stroke:#0c00b0; stroke-width:9;" x1="258.5" y1="0" x2="258.5" y2="90"/>
<line fill="none" style="stroke:#0c00b0; stroke-width:3;" x1="267.5" y1="0" x2="267.5" y2="90"/>
<line fill="none" style="stroke:#0c00b0; stroke-width:3;" x1="276.5" y1="0" x2="276.5" y2="90"/>
<line fill="none" style="stroke:#0c00b0; stroke-width:3;" x1="288.5" y1="0" x2="288.5" y2="90"/>
<line fill="none" style="stroke:#0c00b0; stroke-width:3;" x1="297.5" y1="0" x2="297.5" y2="98"/>
<line fill="none" style="stroke:#0c00b0; stroke-width:3;" x1="303.5" y1="0" x2="303.5" y2="98"/>
<text x="10" y="117.632" text-anchor="middle" style="font-family: Tahoma; font-size: 32px; stroke: none; fill:#0c00b0;">9</text>
<text x="91.25" y="117.632" text-anchor="middle" style="font-family: Tahoma; font-size: 32px; stroke: none; fill:#0c00b0;">781234</text>
<text x="233.75" y="117.632" text-anchor="middle" style="font-family: Tahoma; font-size: 32px; stroke: none; fill:#0c00b0;">567897</text>
</svg>
